<svg id="Capa_1" enable-background="new 0 0 512 512" height="512" viewBox="0 0 512 512" width="512" xmlns="http://www.w3.org/2000/svg"><g><path d="m472 512h-55c-8.284 0-15-6.716-15-15v-95h40c38.66 0 70 31.34 70 70 0 22.091-17.909 40-40 40z" fill="#ffc336"/><path d="m457 82h-347l-65 260h-41l-4 45c0 24.853 20.147 45 45 45h427c22.091 0 40 17.909 40 40v-335c0-30.376-24.624-55-55-55z" fill="#ffedaf"/><g><path d="m66.25 257-21.25 85h-41l-4 45c0 24.853 20.147 45 45 45h427c22.091 0 40 17.909 40 40v-215z" fill="#ffe67a"/></g><g><path d="m215.583 270.416c-3.954 0-7.776-1.564-10.605-4.394-3.249-3.249-4.83-7.807-4.29-12.37.49-4.141 12.8-102.208 82.071-171.478 69.271-69.27 167.337-81.58 171.477-82.07 4.568-.54 9.134 1.044 12.382 4.301 3.25 3.257 4.825 7.824 4.273 12.392-.304 2.521-7.859 62.416-43.656 121.754-2.177 3.608-5.771 6.134-9.902 6.96l-29.902 5.98 8.191 8.192c5.673 5.673 5.878 14.806.465 20.728-.586.641-1.166 1.285-1.746 1.929-1.722 1.911-3.502 3.888-5.518 5.903-69.27 69.27-167.336 81.58-171.477 82.07-.588.069-1.178.103-1.763.103z" fill="#ff5e82"/><g><path d="m466.606 4.394-261.629 261.629c2.829 2.83 6.652 4.394 10.605 4.394.586 0 1.175-.034 1.764-.104 4.141-.49 102.207-12.8 171.477-82.07 2.016-2.016 3.796-3.992 5.518-5.903.58-.644 1.16-1.288 1.746-1.929 5.413-5.922 5.208-15.055-.465-20.728l-8.191-8.192 29.902-5.98c4.132-.826 7.726-3.352 9.902-6.96 35.797-59.338 43.353-119.233 43.656-121.754.552-4.567-1.023-9.135-4.273-12.392-.004-.004-.008-.007-.012-.011z" fill="#b7457d"/></g><path d="m173.157 312.843c-3.839 0-7.677-1.464-10.606-4.394-5.858-5.858-5.858-15.355 0-21.213l141.422-141.421c5.858-5.858 15.356-5.858 21.213 0 5.858 5.858 5.858 15.355 0 21.213l-141.422 141.421c-2.929 2.929-6.768 4.394-10.607 4.394z" fill="#5e54ac"/><g><g><path d="m325.185 145.815-162.634 162.634c2.929 2.929 6.767 4.394 10.606 4.394 3.838 0 7.678-1.465 10.606-4.394l141.422-141.421c5.859-5.858 5.859-15.355 0-21.213z" fill="#453d81"/></g></g></g><path d="m95 22h-50c-24.853 0-45 20.147-45 45v320c0-24.853 20.147-45 45-45h50c8.284 0 15-6.716 15-15v-290c0-8.284-6.716-15-15-15z" fill="#ffe67a"/><g><path d="m0 257v130c0-24.853 20.147-45 45-45h50c8.284 0 15-6.716 15-15v-70z" fill="#ffc336"/></g></g></svg>